<?xml version="1.0" standalone="no"?>
<!DOCTYPE svg PUBLIC "-//W3C//DTD SVG 20010904//EN"
 "http://www.w3.org/TR/2001/REC-SVG-20010904/DTD/svg10.dtd">
<svg version="1.0" xmlns="http://www.w3.org/2000/svg"
 width="576.000000pt" height="576.000000pt" viewBox="0 0 576.000000 576.000000"
 preserveAspectRatio="xMidYMid meet">
<metadata>
Created by potrace 1.14, written by Peter Selinger 2001-2017
</metadata>
<g transform="translate(0.000000,576.000000) scale(0.100000,-0.100000)"
fill="#000000" stroke="none">
<path d="M2770 5424 c-40 -12 -85 -44 -185 -133 -16 -14 -66 -57 -110 -95 -44
-38 -114 -99 -155 -136 -41 -37 -114 -100 -161 -141 -166 -143 -304 -263 -309
-269 -3 -3 -74 -65 -158 -138 -84 -72 -167 -145 -185 -160 -17 -16 -75 -66
-127 -112 -113 -98 -219 -191 -234 -205 -6 -5 -61 -53 -121 -105 -61 -52 -112
-97 -115 -100 -3 -3 -34 -30 -70 -60 -35 -30 -72 -62 -81 -70 -8 -8 -44 -40
-79 -70 -88 -76 -239 -206 -275 -239 -16 -14 -96 -84 -177 -155 -81 -71 -158
-145 -172 -166 -104 -158 -49 -387 114 -470 57 -29 96 -34 285 -36 99 -1 182
-2 185 -3 3 -1 4 -420 2 -932 -2 -601 1 -951 8 -986 22 -123 99 -222 218 -280
l76 -38 485 0 c268 0 495 3 506 6 11 3 37 13 59 22 21 9 41 17 45 17 4 0 33
23 64 51 41 36 67 71 94 127 l38 76 3 265 c8 873 5 791 32 846 31 64 91 124
155 155 l50 25 405 0 405 0 50 -25 c87 -44 142 -109 174 -208 6 -21 10 -203
11 -512 0 -270 5 -502 10 -531 23 -120 100 -218 218 -276 l76 -38 485 0 c268
0 495 3 506 6 11 3 37 13 59 22 21 9 41 17 45 17 4 0 33 23 64 51 40 36 67 71
93 125 37 74 37 76 43 232 6 144 6 423 1 1415 -1 197 1 361 4 365 4 3 91 6
195 7 l188 1 66 32 c73 36 126 90 159 162 16 34 21 66 22 130 1 136 -18 163
-275 384 -40 35 -179 157 -195 171 -6 6 -39 35 -74 65 -35 30 -68 60 -74 65
-6 6 -65 58 -131 115 -66 58 -122 107 -125 110 -3 3 -59 52 -125 110 -66 58
-122 107 -125 110 -3 3 -41 36 -85 75 -44 38 -82 72 -85 75 -3 3 -54 48 -115
100 -60 52 -116 102 -125 110 -29 26 -93 83 -170 150 -41 36 -80 70 -86 75
-13 12 -115 102 -249 220 -55 48 -113 99 -130 114 -16 14 -84 73 -150 131
-144 126 -184 162 -199 175 -83 77 -178 151 -215 168 -57 25 -186 31 -251 11z"/>
</g>
</svg>
